<svg width="144" height="144" viewBox="0 0 144 144" fill="none" xmlns="http://www.w3.org/2000/svg">
<path d="M71.9994 14.165C40.0778 14.165 14.1997 40.059 14.1997 71.999C14.1997 103.938 40.0778 129.835 71.9994 129.835C103.921 129.835 129.801 103.939 129.801 71.999C129.8 40.059 103.921 14.165 71.9994 14.165ZM91.739 51.16C91.739 51.712 91.2923 52.16 90.7396 52.16H76.6687V59.727H90.7386C91.2913 59.727 91.738 60.175 91.738 60.727V74.804C91.738 75.357 91.2913 75.804 90.7386 75.804H77.6681V106.696C77.6681 107.249 77.2214 107.696 76.6687 107.696H63.3714C62.8187 107.696 62.3719 107.249 62.3719 106.696V75.805H53.2602C52.7075 75.805 52.2608 75.358 52.2608 74.805V60.728C52.2608 60.176 52.7075 59.728 53.2602 59.728H62.3719V54.02C62.3719 53.938 62.3819 53.859 62.3999 53.783C62.4079 45.652 64.1459 36.35 77.4592 36.308C77.4882 36.306 77.5192 36.304 77.5492 36.304H90.7386C91.2913 36.304 91.738 36.752 91.738 37.304V51.16H91.739Z" fill="#FDEF9C"/>
</svg>
