<?xml version="1.0" encoding="UTF-8"?>
<!DOCTYPE svg PUBLIC "-//W3C//DTD SVG 1.1//EN" "http://www.w3.org/Graphics/SVG/1.1/DTD/svg11.dtd">
<svg xmlns="http://www.w3.org/2000/svg" xmlns:xlink="http://www.w3.org/1999/xlink" version="1.1" id="Instagram" x="0px" y="0px" width="144.083px" height="144px" viewBox="0 0 144.083 144" enable-background="new 0 0 144.083 144" xml:space="preserve">
<rect x="83.401" y="50.849" width="8.92" height="9.189"/>
<path d="M86.846,71.899c0,8.163-6.642,14.805-14.805,14.805c-8.164,0-14.806-6.642-14.806-14.805c0-2.209,0.5-4.3,1.371-6.185  h-9.784v25.414c0,2.307,1.877,4.184,4.184,4.184h38.07c2.307,0,4.184-1.877,4.184-4.184V65.715h-9.785  C86.346,67.6,86.846,69.69,86.846,71.899z"/>
<path d="M72.042,80.704c4.854,0,8.805-3.95,8.805-8.805c0-2.409-0.974-4.593-2.547-6.185H65.782  c-1.572,1.591-2.546,3.776-2.546,6.185C63.236,76.754,67.186,80.704,72.042,80.704z"/>
<path d="M72.041,14.165c-31.94,0-57.833,25.894-57.833,57.834c0,31.939,25.893,57.836,57.833,57.836s57.835-25.896,57.835-57.836  C129.875,40.059,103.981,14.165,72.041,14.165z M101.26,91.129c0,5.615-4.568,10.184-10.184,10.184h-38.07  c-5.615,0-10.184-4.568-10.184-10.184V52.884c0-5.615,4.568-10.184,10.184-10.184h38.07c5.615,0,10.184,4.568,10.184,10.184V91.129z  "/>

	
	
	
	<metadata>
		<rdf:RDF xmlns:rdf="http://www.w3.org/1999/02/22-rdf-syntax-ns#" xmlns:rdfs="http://www.w3.org/2000/01/rdf-schema#" xmlns:dc="http://purl.org/dc/elements/1.1/">
			<rdf:Description about="https://iconscout.com/legal#licenses" dc:title="Instagram" dc:description="Instagram" dc:publisher="Iconscout" dc:date="2017-03-22" dc:format="image/svg+xml" dc:language="en">
				<dc:creator>
					<rdf:Bag>
						<rdf:li/>
					</rdf:Bag>
				</dc:creator>
			</rdf:Description>
		</rdf:RDF>
    </metadata></svg>
