<svg width="418" height="82" viewBox="0 0 418 82" fill="none" xmlns="http://www.w3.org/2000/svg">
<g opacity="0.78">
<path d="M109.047 44.6118V10.4868H121C125.141 10.4868 128.281 11.2837 130.422 12.8774C132.562 14.4556 133.633 16.7759 133.633 19.8384C133.633 21.5103 133.203 22.9868 132.344 24.2681C131.484 25.5337 130.289 26.4634 128.758 27.0571C130.508 27.4946 131.883 28.3774 132.883 29.7056C133.898 31.0337 134.406 32.6587 134.406 34.5806C134.406 37.8618 133.359 40.3462 131.266 42.0337C129.172 43.7212 126.188 44.5806 122.312 44.6118H109.047ZM116.078 29.7524V38.9634H122.102C123.758 38.9634 125.047 38.5728 125.969 37.7915C126.906 36.9946 127.375 35.9009 127.375 34.5103C127.375 31.3853 125.758 29.7993 122.523 29.7524H116.078ZM116.078 24.7837H121.281C124.828 24.7212 126.602 23.3071 126.602 20.5415C126.602 18.9946 126.148 17.8853 125.242 17.2134C124.352 16.5259 122.938 16.1821 121 16.1821H116.078V24.7837ZM158.969 37.5806H146.641L144.297 44.6118H136.82L149.523 10.4868H156.039L168.812 44.6118H161.336L158.969 37.5806ZM148.539 31.8853H157.07L152.781 19.1118L148.539 31.8853ZM189.695 35.6587C189.695 34.3306 189.227 33.3149 188.289 32.6118C187.352 31.8931 185.664 31.1431 183.227 30.3618C180.789 29.5649 178.859 28.7837 177.438 28.0181C173.562 25.9243 171.625 23.104 171.625 19.5571C171.625 17.7134 172.141 16.0728 173.172 14.6353C174.219 13.1821 175.711 12.0493 177.648 11.2368C179.602 10.4243 181.789 10.0181 184.211 10.0181C186.648 10.0181 188.82 10.4634 190.727 11.354C192.633 12.229 194.109 13.4712 195.156 15.0806C196.219 16.6899 196.75 18.5181 196.75 20.5649H189.719C189.719 19.0024 189.227 17.7915 188.242 16.9321C187.258 16.0571 185.875 15.6196 184.094 15.6196C182.375 15.6196 181.039 15.9868 180.086 16.7212C179.133 17.4399 178.656 18.3931 178.656 19.5806C178.656 20.6899 179.211 21.6196 180.32 22.3696C181.445 23.1196 183.094 23.8228 185.266 24.479C189.266 25.6821 192.18 27.1743 194.008 28.9556C195.836 30.7368 196.75 32.9556 196.75 35.6118C196.75 38.5649 195.633 40.8853 193.398 42.5728C191.164 44.2446 188.156 45.0806 184.375 45.0806C181.75 45.0806 179.359 44.604 177.203 43.6509C175.047 42.6821 173.398 41.3618 172.258 39.6899C171.133 38.0181 170.57 36.0806 170.57 33.8774H177.625C177.625 37.6431 179.875 39.5259 184.375 39.5259C186.047 39.5259 187.352 39.1899 188.289 38.5181C189.227 37.8306 189.695 36.8774 189.695 35.6587ZM219.227 35.6587C219.227 34.3306 218.758 33.3149 217.82 32.6118C216.883 31.8931 215.195 31.1431 212.758 30.3618C210.32 29.5649 208.391 28.7837 206.969 28.0181C203.094 25.9243 201.156 23.104 201.156 19.5571C201.156 17.7134 201.672 16.0728 202.703 14.6353C203.75 13.1821 205.242 12.0493 207.18 11.2368C209.133 10.4243 211.32 10.0181 213.742 10.0181C216.18 10.0181 218.352 10.4634 220.258 11.354C222.164 12.229 223.641 13.4712 224.688 15.0806C225.75 16.6899 226.281 18.5181 226.281 20.5649H219.25C219.25 19.0024 218.758 17.7915 217.773 16.9321C216.789 16.0571 215.406 15.6196 213.625 15.6196C211.906 15.6196 210.57 15.9868 209.617 16.7212C208.664 17.4399 208.188 18.3931 208.188 19.5806C208.188 20.6899 208.742 21.6196 209.852 22.3696C210.977 23.1196 212.625 23.8228 214.797 24.479C218.797 25.6821 221.711 27.1743 223.539 28.9556C225.367 30.7368 226.281 32.9556 226.281 35.6118C226.281 38.5649 225.164 40.8853 222.93 42.5728C220.695 44.2446 217.688 45.0806 213.906 45.0806C211.281 45.0806 208.891 44.604 206.734 43.6509C204.578 42.6821 202.93 41.3618 201.789 39.6899C200.664 38.0181 200.102 36.0806 200.102 33.8774H207.156C207.156 37.6431 209.406 39.5259 213.906 39.5259C215.578 39.5259 216.883 39.1899 217.82 38.5181C218.758 37.8306 219.227 36.8774 219.227 35.6587Z" fill="#FDEF9C"/>
<path d="M232.047 44.6118V10.4868H244C248.141 10.4868 251.281 11.2837 253.422 12.8774C255.562 14.4556 256.633 16.7759 256.633 19.8384C256.633 21.5103 256.203 22.9868 255.344 24.2681C254.484 25.5337 253.289 26.4634 251.758 27.0571C253.508 27.4946 254.883 28.3774 255.883 29.7056C256.898 31.0337 257.406 32.6587 257.406 34.5806C257.406 37.8618 256.359 40.3462 254.266 42.0337C252.172 43.7212 249.188 44.5806 245.312 44.6118H232.047ZM239.078 29.7524V38.9634H245.102C246.758 38.9634 248.047 38.5728 248.969 37.7915C249.906 36.9946 250.375 35.9009 250.375 34.5103C250.375 31.3853 248.758 29.7993 245.523 29.7524H239.078ZM239.078 24.7837H244.281C247.828 24.7212 249.602 23.3071 249.602 20.5415C249.602 18.9946 249.148 17.8853 248.242 17.2134C247.352 16.5259 245.938 16.1821 244 16.1821H239.078V24.7837ZM275.336 32.1196H269.734V44.6118H262.703V10.4868H275.383C279.414 10.4868 282.523 11.3853 284.711 13.1821C286.898 14.979 287.992 17.5181 287.992 20.7993C287.992 23.1274 287.484 25.0728 286.469 26.6353C285.469 28.1821 283.945 29.4165 281.898 30.3384L289.281 44.2837V44.6118H281.734L275.336 32.1196ZM269.734 26.4243H275.406C277.172 26.4243 278.539 25.979 279.508 25.0884C280.477 24.1821 280.961 22.9399 280.961 21.3618C280.961 19.7524 280.5 18.4868 279.578 17.5649C278.672 16.6431 277.273 16.1821 275.383 16.1821H269.734V26.4243ZM312.625 37.5806H300.297L297.953 44.6118H290.477L303.18 10.4868H309.695L322.469 44.6118H314.992L312.625 37.5806ZM302.195 31.8853H310.727L306.438 19.1118L302.195 31.8853ZM353.406 44.6118H346.375L332.688 22.1587V44.6118H325.656V10.4868H332.688L346.398 32.9868V10.4868H353.406V44.6118ZM359.547 44.6118V10.4868H370.047C373.047 10.4868 375.727 11.1665 378.086 12.5259C380.461 13.8696 382.312 15.7915 383.641 18.2915C384.969 20.7759 385.633 23.604 385.633 26.7759V28.3462C385.633 31.5181 384.977 34.3384 383.664 36.8071C382.367 39.2759 380.531 41.1899 378.156 42.5493C375.781 43.9087 373.102 44.5962 370.117 44.6118H359.547ZM366.578 16.1821V38.9634H369.977C372.727 38.9634 374.828 38.0649 376.281 36.2681C377.734 34.4712 378.477 31.9009 378.508 28.5571V26.7524C378.508 23.2837 377.789 20.6587 376.352 18.8774C374.914 17.0806 372.812 16.1821 370.047 16.1821H366.578ZM408.461 35.6587C408.461 34.3306 407.992 33.3149 407.055 32.6118C406.117 31.8931 404.43 31.1431 401.992 30.3618C399.555 29.5649 397.625 28.7837 396.203 28.0181C392.328 25.9243 390.391 23.104 390.391 19.5571C390.391 17.7134 390.906 16.0728 391.938 14.6353C392.984 13.1821 394.477 12.0493 396.414 11.2368C398.367 10.4243 400.555 10.0181 402.977 10.0181C405.414 10.0181 407.586 10.4634 409.492 11.354C411.398 12.229 412.875 13.4712 413.922 15.0806C414.984 16.6899 415.516 18.5181 415.516 20.5649H408.484C408.484 19.0024 407.992 17.7915 407.008 16.9321C406.023 16.0571 404.641 15.6196 402.859 15.6196C401.141 15.6196 399.805 15.9868 398.852 16.7212C397.898 17.4399 397.422 18.3931 397.422 19.5806C397.422 20.6899 397.977 21.6196 399.086 22.3696C400.211 23.1196 401.859 23.8228 404.031 24.479C408.031 25.6821 410.945 27.1743 412.773 28.9556C414.602 30.7368 415.516 32.9556 415.516 35.6118C415.516 38.5649 414.398 40.8853 412.164 42.5728C409.93 44.2446 406.922 45.0806 403.141 45.0806C400.516 45.0806 398.125 44.604 395.969 43.6509C393.812 42.6821 392.164 41.3618 391.023 39.6899C389.898 38.0181 389.336 36.0806 389.336 33.8774H396.391C396.391 37.6431 398.641 39.5259 403.141 39.5259C404.812 39.5259 406.117 39.1899 407.055 38.5181C407.992 37.8306 408.461 36.8774 408.461 35.6587Z" fill="#FDEF9C"/>
<path d="M0 67.1294H300" stroke="#FDEF9C" stroke-width="5"/>
<path d="M0 46.9727H100" stroke="#FDEF9C" stroke-width="5"/>
<path d="M0 79.2236H418" stroke="#FDEF9C" stroke-width="5"/>
<path d="M0 57.051H200" stroke="#FDEF9C" stroke-width="5"/>
</g>
</svg>
