<svg width="418" height="81" viewBox="0 0 418 81" fill="none" xmlns="http://www.w3.org/2000/svg">
<path d="M109.047 44V9.875H121C125.141 9.875 128.281 10.6719 130.422 12.2656C132.562 13.8437 133.633 16.1641 133.633 19.2266C133.633 20.8984 133.203 22.375 132.344 23.6562C131.484 24.9219 130.289 25.8516 128.758 26.4453C130.508 26.8828 131.883 27.7656 132.883 29.0938C133.898 30.4219 134.406 32.0469 134.406 33.9688C134.406 37.25 133.359 39.7344 131.266 41.4219C129.172 43.1094 126.188 43.9688 122.312 44H109.047ZM116.078 29.1406V38.3516H122.102C123.758 38.3516 125.047 37.9609 125.969 37.1797C126.906 36.3828 127.375 35.2891 127.375 33.8984C127.375 30.7734 125.758 29.1875 122.523 29.1406H116.078ZM116.078 24.1719H121.281C124.828 24.1094 126.602 22.6953 126.602 19.9297C126.602 18.3828 126.148 17.2734 125.242 16.6016C124.352 15.9141 122.938 15.5703 121 15.5703H116.078V24.1719ZM158.969 36.9688H146.641L144.297 44H136.82L149.523 9.875H156.039L168.812 44H161.336L158.969 36.9688ZM148.539 31.2734H157.07L152.781 18.5L148.539 31.2734ZM189.695 35.0469C189.695 33.7188 189.227 32.7031 188.289 32C187.352 31.2812 185.664 30.5312 183.227 29.75C180.789 28.9531 178.859 28.1719 177.438 27.4062C173.562 25.3125 171.625 22.4922 171.625 18.9453C171.625 17.1016 172.141 15.4609 173.172 14.0234C174.219 12.5703 175.711 11.4375 177.648 10.625C179.602 9.8125 181.789 9.40625 184.211 9.40625C186.648 9.40625 188.82 9.85156 190.727 10.7422C192.633 11.6172 194.109 12.8594 195.156 14.4688C196.219 16.0781 196.75 17.9062 196.75 19.9531H189.719C189.719 18.3906 189.227 17.1797 188.242 16.3203C187.258 15.4453 185.875 15.0078 184.094 15.0078C182.375 15.0078 181.039 15.375 180.086 16.1094C179.133 16.8281 178.656 17.7812 178.656 18.9688C178.656 20.0781 179.211 21.0078 180.32 21.7578C181.445 22.5078 183.094 23.2109 185.266 23.8672C189.266 25.0703 192.18 26.5625 194.008 28.3438C195.836 30.125 196.75 32.3438 196.75 35C196.75 37.9531 195.633 40.2734 193.398 41.9609C191.164 43.6328 188.156 44.4688 184.375 44.4688C181.75 44.4688 179.359 43.9922 177.203 43.0391C175.047 42.0703 173.398 40.75 172.258 39.0781C171.133 37.4062 170.57 35.4688 170.57 33.2656H177.625C177.625 37.0312 179.875 38.9141 184.375 38.9141C186.047 38.9141 187.352 38.5781 188.289 37.9062C189.227 37.2188 189.695 36.2656 189.695 35.0469ZM219.227 35.0469C219.227 33.7188 218.758 32.7031 217.82 32C216.883 31.2812 215.195 30.5312 212.758 29.75C210.32 28.9531 208.391 28.1719 206.969 27.4062C203.094 25.3125 201.156 22.4922 201.156 18.9453C201.156 17.1016 201.672 15.4609 202.703 14.0234C203.75 12.5703 205.242 11.4375 207.18 10.625C209.133 9.8125 211.32 9.40625 213.742 9.40625C216.18 9.40625 218.352 9.85156 220.258 10.7422C222.164 11.6172 223.641 12.8594 224.688 14.4688C225.75 16.0781 226.281 17.9062 226.281 19.9531H219.25C219.25 18.3906 218.758 17.1797 217.773 16.3203C216.789 15.4453 215.406 15.0078 213.625 15.0078C211.906 15.0078 210.57 15.375 209.617 16.1094C208.664 16.8281 208.188 17.7812 208.188 18.9688C208.188 20.0781 208.742 21.0078 209.852 21.7578C210.977 22.5078 212.625 23.2109 214.797 23.8672C218.797 25.0703 221.711 26.5625 223.539 28.3438C225.367 30.125 226.281 32.3438 226.281 35C226.281 37.9531 225.164 40.2734 222.93 41.9609C220.695 43.6328 217.688 44.4688 213.906 44.4688C211.281 44.4688 208.891 43.9922 206.734 43.0391C204.578 42.0703 202.93 40.75 201.789 39.0781C200.664 37.4062 200.102 35.4688 200.102 33.2656H207.156C207.156 37.0312 209.406 38.9141 213.906 38.9141C215.578 38.9141 216.883 38.5781 217.82 37.9062C218.758 37.2188 219.227 36.2656 219.227 35.0469Z" fill="black"/>
<path d="M232.047 44V9.875H244C248.141 9.875 251.281 10.6719 253.422 12.2656C255.562 13.8437 256.633 16.1641 256.633 19.2266C256.633 20.8984 256.203 22.375 255.344 23.6562C254.484 24.9219 253.289 25.8516 251.758 26.4453C253.508 26.8828 254.883 27.7656 255.883 29.0938C256.898 30.4219 257.406 32.0469 257.406 33.9688C257.406 37.25 256.359 39.7344 254.266 41.4219C252.172 43.1094 249.188 43.9688 245.312 44H232.047ZM239.078 29.1406V38.3516H245.102C246.758 38.3516 248.047 37.9609 248.969 37.1797C249.906 36.3828 250.375 35.2891 250.375 33.8984C250.375 30.7734 248.758 29.1875 245.523 29.1406H239.078ZM239.078 24.1719H244.281C247.828 24.1094 249.602 22.6953 249.602 19.9297C249.602 18.3828 249.148 17.2734 248.242 16.6016C247.352 15.9141 245.938 15.5703 244 15.5703H239.078V24.1719ZM275.336 31.5078H269.734V44H262.703V9.875H275.383C279.414 9.875 282.523 10.7734 284.711 12.5703C286.898 14.3672 287.992 16.9062 287.992 20.1875C287.992 22.5156 287.484 24.4609 286.469 26.0234C285.469 27.5703 283.945 28.8047 281.898 29.7266L289.281 43.6719V44H281.734L275.336 31.5078ZM269.734 25.8125H275.406C277.172 25.8125 278.539 25.3672 279.508 24.4766C280.477 23.5703 280.961 22.3281 280.961 20.75C280.961 19.1406 280.5 17.875 279.578 16.9531C278.672 16.0312 277.273 15.5703 275.383 15.5703H269.734V25.8125ZM312.625 36.9688H300.297L297.953 44H290.477L303.18 9.875H309.695L322.469 44H314.992L312.625 36.9688ZM302.195 31.2734H310.727L306.438 18.5L302.195 31.2734ZM353.406 44H346.375L332.688 21.5469V44H325.656V9.875H332.688L346.398 32.375V9.875H353.406V44ZM359.547 44V9.875H370.047C373.047 9.875 375.727 10.5547 378.086 11.9141C380.461 13.2578 382.312 15.1797 383.641 17.6797C384.969 20.1641 385.633 22.9922 385.633 26.1641V27.7344C385.633 30.9062 384.977 33.7266 383.664 36.1953C382.367 38.6641 380.531 40.5781 378.156 41.9375C375.781 43.2969 373.102 43.9844 370.117 44H359.547ZM366.578 15.5703V38.3516H369.977C372.727 38.3516 374.828 37.4531 376.281 35.6562C377.734 33.8594 378.477 31.2891 378.508 27.9453V26.1406C378.508 22.6719 377.789 20.0469 376.352 18.2656C374.914 16.4688 372.812 15.5703 370.047 15.5703H366.578ZM408.461 35.0469C408.461 33.7188 407.992 32.7031 407.055 32C406.117 31.2812 404.43 30.5312 401.992 29.75C399.555 28.9531 397.625 28.1719 396.203 27.4062C392.328 25.3125 390.391 22.4922 390.391 18.9453C390.391 17.1016 390.906 15.4609 391.938 14.0234C392.984 12.5703 394.477 11.4375 396.414 10.625C398.367 9.8125 400.555 9.40625 402.977 9.40625C405.414 9.40625 407.586 9.85156 409.492 10.7422C411.398 11.6172 412.875 12.8594 413.922 14.4688C414.984 16.0781 415.516 17.9062 415.516 19.9531H408.484C408.484 18.3906 407.992 17.1797 407.008 16.3203C406.023 15.4453 404.641 15.0078 402.859 15.0078C401.141 15.0078 399.805 15.375 398.852 16.1094C397.898 16.8281 397.422 17.7812 397.422 18.9688C397.422 20.0781 397.977 21.0078 399.086 21.7578C400.211 22.5078 401.859 23.2109 404.031 23.8672C408.031 25.0703 410.945 26.5625 412.773 28.3438C414.602 30.125 415.516 32.3438 415.516 35C415.516 37.9531 414.398 40.2734 412.164 41.9609C409.93 43.6328 406.922 44.4688 403.141 44.4688C400.516 44.4688 398.125 43.9922 395.969 43.0391C393.812 42.0703 392.164 40.75 391.023 39.0781C389.898 37.4062 389.336 35.4688 389.336 33.2656H396.391C396.391 37.0312 398.641 38.9141 403.141 38.9141C404.812 38.9141 406.117 38.5781 407.055 37.9062C407.992 37.2188 408.461 36.2656 408.461 35.0469Z" fill="black"/>
<path d="M0 66H300" stroke="#333333" stroke-width="5"/>
<path d="M0 46H100" stroke="#333333" stroke-width="5"/>
<path d="M0 78H418" stroke="#333333" stroke-width="5"/>
<path d="M0 56H200" stroke="#333333" stroke-width="5"/>
</svg>
