<svg width="80" height="66" viewBox="0 0 80 66" fill="none" xmlns="http://www.w3.org/2000/svg">
<path d="M14.1363 0.498779H0V5.49915H10.8644L28.3654 45.4993H69.9994V40.4999H31.6367L14.1363 0.498779Z" fill="#FDEF9C"/>
<path d="M25.0007 10.4988L35.0015 35.5H69.9994L80 10.4988H25.0007ZM66.6205 30.4996H38.3878L32.3868 15.499H72.6173L66.6205 30.4996Z" fill="#FDEF9C"/>
<path d="M37.5009 50.5005C33.3579 50.5005 30.0007 53.8595 30.0007 58.0008C30.0007 62.1408 33.3577 65.5013 37.5009 65.5013C41.6409 65.5013 44.999 62.1408 44.999 58.0008C44.999 53.8595 41.6409 50.5005 37.5009 50.5005ZM37.5009 60.5004C36.122 60.5004 35.0011 59.3776 35.0011 58.001C35.0011 56.6235 36.1218 55.5009 37.5009 55.5009C38.8803 55.5009 40.0011 56.6237 40.0011 58.001C40.001 59.3776 38.8803 60.5004 37.5009 60.5004Z" fill="#FDEF9C"/>
<path d="M62.5 50.5005C58.3593 50.5005 54.9995 53.8595 54.9995 58.0008C54.9995 62.1408 58.3593 65.5013 62.5 65.5013C66.6407 65.5013 69.9996 62.1408 69.9996 58.0008C69.9996 53.8595 66.6407 50.5005 62.5 50.5005ZM62.5 60.5004C61.1232 60.5004 60.0007 59.3776 60.0007 58.001C60.0007 56.6235 61.1234 55.5009 62.5 55.5009C63.8759 55.5009 65.0001 56.6237 65.0001 58.001C65.0001 59.3776 63.8774 60.5004 62.5 60.5004Z" fill="#FDEF9C"/>
</svg>
