<svg width="25" height="26" viewBox="0 0 25 26" fill="none" xmlns="http://www.w3.org/2000/svg">
<g clip-path="url(#clip0)">
<path d="M4.66206 3.10107H0.30249V4.64316H3.65302L9.05025 16.979H21.89V15.4372H10.0591L4.66206 3.10107Z" fill="black"/>
<path d="M8.01282 6.18506L11.097 13.8953H21.8902L24.9743 6.18506H8.01282ZM20.8482 12.3532H12.1413L10.2906 7.7271H22.6975L20.8482 12.3532Z" fill="black"/>
<path d="M11.8678 18.521C10.5901 18.521 9.55481 19.5569 9.55481 20.8341C9.55481 22.1108 10.5901 23.1472 11.8678 23.1472C13.1446 23.1472 14.1802 22.1108 14.1802 20.8341C14.1802 19.5569 13.1446 18.521 11.8678 18.521ZM11.8678 21.6049C11.4426 21.6049 11.0969 21.2586 11.0969 20.8341C11.0969 20.4093 11.4425 20.0631 11.8678 20.0631C12.2932 20.0631 12.6389 20.4094 12.6389 20.8341C12.6388 21.2586 12.2932 21.6049 11.8678 21.6049Z" fill="black"/>
<path d="M19.5774 18.521C18.3004 18.521 17.2643 19.5569 17.2643 20.8341C17.2643 22.1108 18.3004 23.1472 19.5774 23.1472C20.8544 23.1472 21.8902 22.1108 21.8902 20.8341C21.8902 19.5569 20.8544 18.521 19.5774 18.521ZM19.5774 21.6049C19.1528 21.6049 18.8066 21.2586 18.8066 20.8341C18.8066 20.4093 19.1529 20.0631 19.5774 20.0631C20.0017 20.0631 20.3484 20.4094 20.3484 20.8341C20.3484 21.2586 20.0022 21.6049 19.5774 21.6049Z" fill="black"/>
</g>
<defs>
<clipPath id="clip0">
<rect width="24.6716" height="24.6716" fill="white" transform="translate(0.30249 0.788086)"/>
</clipPath>
</defs>
</svg>
